<?xml version="1.0" encoding="UTF-8" standalone="no"?>
<!-- Uploaded to: SVG Repo, www.svgrepo.com, Generator: SVG Repo Mixer Tools -->

<svg
   width="487.25354"
   height="612.54095"
   viewBox="0 0 77.960566 98.006553"
   version="1.1"
   id="svg13"
   sodipodi:docname="logo.svg"
   inkscape:version="1.1 (c68e22c387, 2021-05-23)"
   xmlns:inkscape="http://www.inkscape.org/namespaces/inkscape"
   xmlns:sodipodi="http://sodipodi.sourceforge.net/DTD/sodipodi-0.dtd"
   xmlns="http://www.w3.org/2000/svg"
   xmlns:svg="http://www.w3.org/2000/svg">
  <sodipodi:namedview
     id="namedview15"
     pagecolor="#ffffff"
     bordercolor="#999999"
     borderopacity="1"
     inkscape:pageshadow="0"
     inkscape:pageopacity="0"
     inkscape:pagecheckerboard="0"
     showgrid="false"
     inkscape:zoom="1.12375"
     inkscape:cx="311.01224"
     inkscape:cy="346.60734"
     inkscape:window-width="2560"
     inkscape:window-height="1361"
     inkscape:window-x="-9"
     inkscape:window-y="-9"
     inkscape:window-maximized="1"
     inkscape:current-layer="svg13" />
  <defs
     id="defs4">
    <style
       id="style2">.cls-1{fill:#231f20;}</style>
  </defs>
  <g
     id="Leaf"
     transform="translate(-25.489432,-14.993447)">
    <path
       class="cls-1"
       d="m 73,77.53 a 33,33 0 0 0 4.79,-37 l -12.87,-25 a 1.12,1.12 0 0 0 -0.16,-0.22 1,1 0 0 0 -1.46,0 1.12,1.12 0 0 0 -0.16,0.22 l -12.87,25 a 33,33 0 0 0 4.79,37 l 8,8.85 V 112 a 1,1 0 0 0 2,0 V 86.38 Z m -8,-57.4 9.9,19.24 a 0.76,0.76 0 0 0 -0.22,0.18 L 65,51.38 Z M 71.48,76.19 65,83.39 V 54.54 l 10.87,-13.28 0.11,0.22 a 31,31 0 0 1 -4.5,34.71 z M 63,20.13 V 60.2 L 50.79,44.66 A 0.53,0.53 0 0 0 50.67,44.56 30.93,30.93 0 0 1 52,41.48 Z M 49.92,46.79 63,63.44 v 20 l -6.48,-7.2 a 31,31 0 0 1 -6.6,-29.45 z"
       id="path6" />
    <path
       class="cls-1"
       d="m 103.45,71.08 a 0.94,0.94 0 0 0 -0.06,-0.28 v -0.09 a 0.94,0.94 0 0 0 -0.2,-0.29 0.84,0.84 0 0 0 -0.29,-0.2 h -0.09 a 1.4,1.4 0 0 0 -0.28,-0.06 h -0.06 a 1,1 0 0 0 -0.29,0 l -17.91,5.75 a 22.34,22.34 0 0 0 -15.41,20 l -0.43,8.2 c 0,0 0,0 0,0 a 0.93,0.93 0 0 0 0,0.29 0.16,0.16 0 0 0 0,0.1 0.87,0.87 0 0 0 0.22,0.35 1,1 0 0 0 0.32,0.21 1,1 0 0 0 0.38,0.08 h 0.06 l 8.19,-0.43 a 22.36,22.36 0 0 0 20,-15.42 l 5.74,-17.88 a 0.92,0.92 0 0 0 0,-0.29 z m -18.57,6.73 14,-4.47 L 81.57,90.6 83,78.53 a 19.87,19.87 0 0 1 1.88,-0.72 z m -4,1.8 -1.6,13.28 -8.72,8.72 L 70.85,96 A 20.36,20.36 0 0 1 80.88,79.61 Z M 77.56,102.73 72,103 84.89,90.1 95.65,89 A 20.33,20.33 0 0 1 77.56,102.73 Z M 96.33,87 87.13,87.92 100.24,74.8 Z"
       id="path8" />
    <path
       class="cls-1"
       d="m 60.45,108.13 v 0 L 60,99.91 a 22.34,22.34 0 0 0 -15.41,-20 L 26.73,74.17 a 1,1 0 0 0 -0.3,0 v 0 a 1.59,1.59 0 0 0 -0.3,0.06 h -0.08 a 1,1 0 0 0 -0.49,0.49 v 0.09 a 1.27,1.27 0 0 0 -0.06,0.28 v 0.06 a 1,1 0 0 0 0,0.29 l 5.74,17.88 a 22.36,22.36 0 0 0 20,15.42 l 8.19,0.43 h 0.06 a 1,1 0 0 0 0.38,-0.08 1,1 0 0 0 0.32,-0.21 1,1 0 0 0 0.23,-0.35 c 0,0 0,-0.06 0,-0.1 a 1.35,1.35 0 0 0 0.03,-0.3 z M 58,100 58.29,105.59 45.4,92.69 44.33,81.93 A 20.37,20.37 0 0 1 58,100 Z M 43.17,90.46 30.05,77.34 42.25,81.25 Z M 28.64,78.75 45.89,96 33.83,94.56 A 18.85,18.85 0 0 1 33.11,92.7 Z m 6.27,18 13.27,1.55 8.73,8.7 -5.59,-0.29 a 20.36,20.36 0 0 1 -16.41,-10 z"
       id="path10" />
  </g>
</svg>
