<?xml version="1.0" ?>
<!-- Uploaded to: SVG Repo, www.svgrepo.com, Generator: SVG Repo Mixer Tools -->
<svg width="800px" height="800px" viewBox="0 0 128 128" xmlns="http://www.w3.org/2000/svg">
<defs>
<style>.cls-1{fill:#231f20;}</style>
</defs>
<g id="Leaf">
<path class="cls-1" d="M73,77.53a33,33,0,0,0,4.79-37l-12.87-25a1.12,1.12,0,0,0-.16-.22,1,1,0,0,0-1.46,0,1.12,1.12,0,0,0-.16.22l-12.87,25a33,33,0,0,0,4.79,37l8,8.85V112a1,1,0,0,0,2,0V86.38Zm-8-57.4,9.9,19.24a.76.76,0,0,0-.22.18L65,51.38Zm6.48,56.06L65,83.39V54.54L75.87,41.26l.11.22A31,31,0,0,1,71.48,76.19ZM63,20.13V60.2L50.79,44.66a.53.53,0,0,0-.12-.1A30.93,30.93,0,0,1,52,41.48ZM49.92,46.79,63,63.44v20l-6.48-7.2A31,31,0,0,1,49.92,46.79Z"/>
<path class="cls-1" d="M103.45,71.08a.94.94,0,0,0-.06-.28l0-.09a.94.94,0,0,0-.2-.29.84.84,0,0,0-.29-.2l-.09,0a1.4,1.4,0,0,0-.28-.06h-.06a1,1,0,0,0-.29,0L84.27,75.91a22.34,22.34,0,0,0-15.41,20l-.43,8.2s0,0,0,0a.93.93,0,0,0,0,.29.16.16,0,0,0,0,.1.87.87,0,0,0,.22.35,1,1,0,0,0,.32.21,1,1,0,0,0,.38.08h.06l8.19-.43a22.36,22.36,0,0,0,20-15.42l5.74-17.88a.92.92,0,0,0,0-.29ZM84.88,77.81l14-4.47L81.57,90.6,83,78.53A19.87,19.87,0,0,1,84.88,77.81Zm-4,1.8-1.6,13.28-8.72,8.72L70.85,96A20.36,20.36,0,0,1,80.88,79.61Zm-3.32,23.12L72,103,84.89,90.1,95.65,89A20.33,20.33,0,0,1,77.56,102.73ZM96.33,87l-9.2.92,13.11-13.12Z"/>
<path class="cls-1" d="M60.45,108.13v0L60,99.91a22.34,22.34,0,0,0-15.41-20L26.73,74.17a1,1,0,0,0-.3,0h0a1.59,1.59,0,0,0-.3.06l-.08,0a1,1,0,0,0-.49.49l0,.09a1.27,1.27,0,0,0-.06.28v.06a1,1,0,0,0,0,.29l5.74,17.88a22.36,22.36,0,0,0,20,15.42l8.19.43h.06a1,1,0,0,0,.38-.08,1,1,0,0,0,.32-.21,1,1,0,0,0,.23-.35s0-.06,0-.1A1.35,1.35,0,0,0,60.45,108.13ZM58,100l.29,5.59L45.4,92.69,44.33,81.93A20.37,20.37,0,0,1,58,100ZM43.17,90.46,30.05,77.34l12.2,3.91ZM28.64,78.75,45.89,96,33.83,94.56a18.85,18.85,0,0,1-.72-1.86Zm6.27,18L48.18,98.3,56.91,107l-5.59-.29A20.36,20.36,0,0,1,34.91,96.71Z"/>
</g>
</svg>