<?xml version="1.0" encoding="UTF-8" standalone="no"?>
<!-- Uploaded to: SVG Repo, www.svgrepo.com, Generator: SVG Repo Mixer Tools -->

<svg
   fill="#000000"
   width="800px"
   height="800px"
   viewBox="0 0 100 100"
   style="fill-rule:evenodd;clip-rule:evenodd;stroke-linejoin:round;stroke-miterlimit:2;"
   version="1.1"
   xml:space="preserve"
   id="svg5"
   sodipodi:docname="logo2.svg"
   inkscape:version="1.1 (c68e22c387, 2021-05-23)"
   xmlns:inkscape="http://www.inkscape.org/namespaces/inkscape"
   xmlns:sodipodi="http://sodipodi.sourceforge.net/DTD/sodipodi-0.dtd"
   xmlns="http://www.w3.org/2000/svg"
   xmlns:svg="http://www.w3.org/2000/svg"><defs
   id="defs9" /><sodipodi:namedview
   id="namedview7"
   pagecolor="#ffffff"
   bordercolor="#999999"
   borderopacity="1"
   inkscape:pageshadow="0"
   inkscape:pageopacity="0"
   inkscape:pagecheckerboard="0"
   showgrid="false"
   inkscape:zoom="1.12375"
   inkscape:cx="400"
   inkscape:cy="400"
   inkscape:window-width="2560"
   inkscape:window-height="1361"
   inkscape:window-x="-9"
   inkscape:window-y="-9"
   inkscape:window-maximized="1"
   inkscape:current-layer="svg5" />

<g
   id="Icon"
   transform="matrix(-1,0,0,1,97.797766,0)">

<path
   d="m 49.741,22.059 c -0.681,-1.762 -1.523,-3.458 -2.433,-5.156 -0.638,-1.191 -1.23,-2.516 -2.338,-3.36 -0.237,-0.181 -0.649,-0.467 -1.027,-0.57 -0.337,-0.091 -0.665,-0.073 -0.957,0.048 -0.322,0.134 -0.574,0.38 -0.737,0.715 -0.176,0.361 -0.223,0.883 -0.242,1.186 -0.084,1.317 0.053,2.702 0.364,3.983 0.802,3.304 3.112,6.118 5.125,8.769 0.605,0.796 1.204,1.782 1.913,2.565 0.08,0.136 0.192,0.251 0.324,0.335 0.059,0.057 0.119,0.112 0.18,0.165 -0.48,2.002 -1.083,3.958 -1.735,5.901 -0.046,-0.135 -0.091,-0.27 -0.135,-0.405 -0.666,-2.026 -1.285,-4.109 -2.228,-6.027 -0.701,-1.425 -1.84,-3.284 -3.424,-3.879 -0.89,-0.333 -1.576,-0.037 -2.071,0.552 -0.497,0.592 -0.731,1.606 -0.694,2.251 0.135,2.391 1.054,4.524 2.265,6.573 1.266,2.142 3.363,3.906 4.475,6.116 -0.154,0.438 -0.308,0.879 -0.461,1.32 -0.071,0.119 -0.115,0.25 -0.132,0.384 -0.445,1.298 -0.875,2.605 -1.269,3.933 -3.115,10.507 -4.366,22.525 -0.761,33.022 -2.228,-2.697 -4.11,-5.684 -5.148,-8.724 -0.112,-0.328 -0.221,-0.657 -0.325,-0.987 0.804,-2.013 1.943,-3.906 2.64,-5.973 0.452,-1.342 0.593,-2.802 0.708,-4.207 0.048,-0.593 0.201,-1.654 0.081,-2.543 -0.119,-0.886 -0.507,-1.613 -1.185,-1.987 -0.645,-0.356 -1.255,-0.258 -1.802,0.143 -0.663,0.487 -1.205,1.692 -1.384,2.176 -0.083,0.225 -0.138,0.398 -0.205,0.63 -0.352,1.226 -0.532,2.513 -0.64,3.805 -0.308,-2.183 -0.479,-4.387 -0.528,-6.595 l 0.004,-0.003 c 1.569,-1.176 2.984,-2.634 4.328,-4.056 1.554,-1.644 2.57,-3.548 3.181,-5.723 0.238,-0.847 0.467,-1.846 0.319,-2.733 -0.129,-0.773 -0.515,-1.197 -0.951,-1.423 -0.559,-0.29 -1.349,-0.243 -2.107,0.168 -1.33,0.72 -2.407,1.958 -3.148,3.252 -0.526,0.918 -0.93,1.902 -1.331,2.882 0.037,-0.386 0.078,-0.771 0.122,-1.155 0.111,-0.526 0.06,-0.814 0.111,-1.119 0.382,-2.294 1.535,-4.092 1.999,-6.385 0.324,-1.601 0.19,-3.291 0.27,-4.915 0.088,-1.765 0.255,-3.876 -0.367,-5.575 -0.503,-1.37 -2.31,-2.431 -3.524,-0.966 -0.694,0.837 -1.088,2.054 -1.333,3.089 -0.434,1.829 -0.361,3.737 -0.303,5.599 0.049,1.572 0.084,3.151 0.243,4.717 0.134,1.323 0.343,2.643 0.728,3.918 0.047,0.154 0.136,0.525 0.257,0.832 -0.205,1.68 -0.352,3.372 -0.435,5.07 -0.394,-0.986 -0.809,-1.966 -1.2,-2.965 -0.597,-1.524 -1.105,-3.259 -2.406,-4.365 -1.013,-0.863 -1.997,-0.86 -2.674,-0.48 -0.657,0.369 -1.17,1.201 -1.088,2.426 0.15,2.25 1.065,4.521 2.162,6.46 0.861,1.521 1.899,2.897 3.206,4.065 0.456,0.407 0.935,0.794 1.458,1.113 0.067,0.041 0.254,0.137 0.339,0.18 0.065,0.076 0.14,0.14 0.222,0.192 0.119,2.124 0.352,4.239 0.708,6.332 -1.148,-1.562 -2.471,-3.097 -4.074,-4.083 -0.702,-0.432 -1.773,-1.026 -2.79,-1.184 -0.902,-0.14 -1.766,0.03 -2.453,0.682 -0.351,0.332 -0.471,0.738 -0.434,1.176 0.024,0.287 0.152,0.601 0.235,0.837 0.378,1.07 0.848,2.015 1.584,2.891 2.2,2.62 5.831,5.419 9.384,5.901 0.014,0.156 0.064,0.307 0.146,0.439 0.116,0.366 0.235,0.73 0.359,1.093 0.402,1.176 0.921,2.346 1.534,3.497 -0.249,-0.178 -0.487,-0.346 -0.712,-0.476 -1.744,-1.009 -3.521,-1.804 -5.541,-2.025 -1.099,-0.12 -2.312,0.103 -3.162,0.865 -0.747,0.669 -0.959,1.492 -0.807,2.212 0.15,0.709 0.671,1.375 1.583,1.707 2.04,0.745 4.419,1.271 6.585,1.421 1.488,0.104 3.072,-0.006 4.553,0.249 1.518,2.078 3.267,4.033 5.07,5.775 0.349,2.186 0.779,4.327 1.253,6.378 0.124,0.537 0.662,0.873 1.199,0.749 0.538,-0.124 0.874,-0.662 0.75,-1.2 -0.282,-1.219 -0.549,-2.471 -0.792,-3.747 0.351,0.297 0.7,0.584 1.048,0.861 0.431,0.344 1.061,0.273 1.405,-0.159 0.344,-0.431 0.273,-1.061 -0.158,-1.405 -0.937,-0.747 -1.892,-1.57 -2.837,-2.455 -0.583,-3.837 -0.902,-7.801 -0.736,-11.636 1.541,-0.231 3.056,-0.509 4.541,-1.031 1.104,-0.388 2.195,-0.832 3.25,-1.343 1.28,-0.62 2.625,-1.455 3.361,-2.721 0.416,-0.715 0.477,-1.454 0.271,-2.057 -0.223,-0.651 -0.751,-1.201 -1.651,-1.415 -0.907,-0.216 -1.932,0.065 -2.799,0.313 -2.333,0.666 -4.672,2.101 -6.521,3.687 0.082,-0.513 0.175,-1.021 0.28,-1.524 0.406,-1.945 0.938,-3.859 1.567,-5.742 1.162,0 2.377,-0.294 3.502,-0.454 3.436,-0.491 6.743,-1.162 9.78,-2.926 1.187,-0.69 2.376,-1.514 3.125,-2.698 0.365,-0.577 0.677,-1.447 0.442,-2.15 -0.138,-0.417 -0.419,-0.716 -0.784,-0.912 -0.339,-0.181 -0.768,-0.259 -1.118,-0.279 -1.226,-0.071 -2.502,0.24 -3.68,0.537 -3.237,0.816 -6.451,2.403 -9.217,4.259 -0.132,0.088 -0.273,0.179 -0.419,0.272 0.844,-2.038 1.779,-4.043 2.768,-6.022 5.132,-1.711 10.584,-2.324 15.234,-5.327 1.302,-0.841 2.916,-2.018 3.63,-3.445 0.402,-0.804 0.395,-1.631 0.091,-2.283 -0.319,-0.685 -0.966,-1.222 -1.944,-1.342 -1.603,-0.197 -3.119,0.357 -4.58,0.928 -2.341,0.915 -4.567,2.324 -6.543,3.867 -1.153,0.899 -2.208,1.891 -3.366,2.777 0.931,-1.719 1.88,-3.421 2.818,-5.107 2.682,-2.341 5.457,-4.597 8.071,-7.025 2.035,-1.89 4.374,-4.856 4.49,-7.818 0.03,-0.751 -0.23,-1.23 -0.574,-1.545 -0.337,-0.309 -0.805,-0.478 -1.357,-0.48 -1.016,-0.004 -2.425,0.646 -2.964,1 -2.731,1.796 -4.727,5.122 -6.514,7.777 -1.068,1.586 -1.993,3.326 -2.682,5.111 -0.294,0.764 -0.901,2.98 -1.224,3.818 -1.179,2.126 -2.357,4.278 -3.485,6.46 0.153,-0.606 0.076,-1.176 -0.259,-1.65 -0.365,-0.515 -0.903,-0.708 -1.539,-0.617 -0.712,0.101 -1.636,0.74 -1.973,0.995 -0.195,0.148 -0.393,0.299 -0.577,0.46 -0.834,0.734 -1.671,1.52 -2.45,2.364 0.156,-0.571 0.317,-1.137 0.484,-1.698 0.382,-1.289 0.797,-2.56 1.226,-3.821 2.153,-1.876 4.745,-3.248 6.847,-5.202 1.567,-1.456 2.753,-3.212 3.944,-4.972 0.726,-1.072 1.455,-2.207 1.938,-3.414 0.122,-0.304 0.298,-0.793 0.297,-1.21 0,-0.344 -0.095,-0.658 -0.284,-0.918 -0.271,-0.376 -0.67,-0.579 -1.133,-0.625 -0.391,-0.038 -0.839,0.057 -1.143,0.154 -1.205,0.383 -2.188,1.309 -3.149,2.089 -1.521,1.234 -2.803,2.611 -3.935,4.117 0.587,-1.966 1.09,-3.96 1.443,-6.012 4.063,-2.275 7.504,-4.562 10.357,-8.414 0.898,-1.213 1.694,-2.648 2.186,-4.076 0.149,-0.436 0.264,-0.998 0.209,-1.423 -0.047,-0.361 -0.194,-0.661 -0.416,-0.884 -0.285,-0.287 -0.734,-0.523 -1.475,-0.378 -1.855,0.363 -3.314,1.725 -4.564,3.039 -1.572,1.654 -3.111,3.408 -4.479,5.255 0.265,-1.094 0.489,-2.19 0.685,-3.261 0.323,-1.761 0.701,-3.487 0.701,-5.289 0,-0.899 0.034,-2.061 -0.169,-3.105 C 55.344,8.834 55.027,8.064 54.495,7.484 54.065,7.015 53.618,6.83 53.207,6.788 52.768,6.744 52.338,6.865 51.939,7.133 51.22,7.617 50.598,8.726 50.315,9.352 c -1.253,2.775 -1.29,5.445 -1.118,8.446 0.082,1.434 0.292,2.851 0.544,4.261 z m -12.48,55.594 c -0.259,-0.187 -0.506,-0.364 -0.739,-0.499 -1.5,-0.868 -3.019,-1.577 -4.757,-1.768 -0.554,-0.061 -1.182,-0.017 -1.61,0.366 -0.114,0.103 -0.207,0.2 -0.184,0.31 0.025,0.12 0.157,0.185 0.312,0.242 1.87,0.682 4.051,1.166 6.037,1.304 0.31,0.022 0.624,0.035 0.941,0.045 z M 51.984,49.649 c -0.26,0.37 -0.526,0.692 -0.704,0.906 -1.972,2.365 -4.092,4.406 -6.767,5.98 -0.033,0.019 -0.067,0.037 -0.101,0.052 -1.2,7.015 -1.3,14.312 0.548,21.064 -0.176,-3.811 0.013,-7.599 0.751,-11.138 1.226,-5.873 3.564,-11.466 6.273,-16.864 z m -4.25,21.212 c 1.041,-0.181 2.069,-0.41 3.08,-0.766 1.034,-0.363 2.055,-0.778 3.042,-1.256 0.935,-0.453 1.966,-1.001 2.504,-1.926 0.089,-0.153 0.174,-0.299 0.102,-0.416 -0.038,-0.063 -0.121,-0.083 -0.217,-0.106 -0.582,-0.138 -1.228,0.131 -1.785,0.291 -2.132,0.609 -4.259,1.957 -5.92,3.413 -0.247,0.217 -0.538,0.475 -0.806,0.766 z M 35.072,68.568 C 34.772,68.124 34.441,67.699 34.139,67.259 32.91,65.468 31.502,63.427 29.623,62.27 29.177,61.996 28.544,61.617 27.896,61.432 27.622,61.353 27.34,61.289 27.094,61.354 l 0.021,0.058 c 0.296,0.838 0.653,1.585 1.229,2.271 1.627,1.937 4.12,4.044 6.728,4.885 z m 4.62,-10.407 c -0.182,0.312 -0.427,0.745 -0.487,0.91 -0.065,0.174 -0.108,0.309 -0.159,0.489 -0.587,2.041 -0.641,4.261 -0.74,6.375 0.262,-0.583 0.504,-1.173 0.708,-1.778 0.401,-1.189 0.509,-2.485 0.611,-3.73 0.034,-0.425 0.144,-1.128 0.119,-1.792 -0.007,-0.164 -0.021,-0.324 -0.052,-0.474 z m 24.412,-4.4 -0.036,-0.003 c -1.027,-0.06 -2.09,0.231 -3.076,0.479 -3.018,0.761 -6.013,2.25 -8.592,3.981 -0.352,0.236 -0.784,0.481 -1.206,0.747 0.427,-0.078 0.851,-0.161 1.261,-0.219 3.179,-0.454 6.248,-1.043 9.058,-2.676 0.914,-0.531 1.863,-1.126 2.439,-2.037 0.051,-0.081 0.106,-0.173 0.152,-0.272 z m -35.381,-8.11 c -0.027,0.09 -0.09,0.329 -0.077,0.524 0.13,1.957 0.952,3.922 1.907,5.608 0.709,1.254 1.552,2.399 2.603,3.381 -0.604,-1.952 -1.451,-3.793 -2.201,-5.707 -0.481,-1.229 -0.791,-2.68 -1.839,-3.572 -0.117,-0.1 -0.229,-0.175 -0.338,-0.218 -0.015,-0.006 -0.036,-0.012 -0.055,-0.016 z m 21.779,2.639 c -0.144,0.084 -0.27,0.16 -0.328,0.204 -0.157,0.12 -0.317,0.239 -0.465,0.369 -1.493,1.313 -3.019,2.8 -4.104,4.515 1.531,-1.192 2.866,-2.577 4.138,-4.104 0.183,-0.219 0.502,-0.582 0.759,-0.984 z m -8.673,-4.146 c -0.052,0.019 -0.106,0.04 -0.147,0.063 -1.009,0.546 -1.803,1.506 -2.366,2.487 -0.607,1.06 -1.033,2.217 -1.502,3.341 -0.344,0.827 -0.678,1.657 -1.024,2.483 -0.086,0.205 -0.209,0.42 -0.307,0.64 0.818,-0.761 1.595,-1.574 2.35,-2.373 1.327,-1.404 2.188,-3.033 2.709,-4.89 0.153,-0.544 0.348,-1.174 0.287,-1.751 z m 15.346,3.574 c 3.669,-0.946 7.347,-1.812 10.609,-3.918 1.029,-0.665 2.362,-1.532 2.926,-2.659 0.097,-0.193 0.14,-0.388 0.067,-0.544 -0.057,-0.124 -0.198,-0.18 -0.375,-0.202 -1.268,-0.156 -2.452,0.354 -3.608,0.806 -2.163,0.845 -4.214,2.155 -6.041,3.58 -1.223,0.955 -2.339,2.008 -3.578,2.937 z M 36.313,29.857 c -0.447,0.606 -0.671,1.45 -0.839,2.161 -0.393,1.657 -0.303,3.388 -0.25,5.075 0.047,1.526 0.08,3.058 0.234,4.578 0.048,0.473 0.106,0.947 0.18,1.418 0.313,-1.182 0.641,-2.362 0.884,-3.563 0.304,-1.504 0.157,-3.091 0.233,-4.618 0.075,-1.514 0.286,-3.329 -0.248,-4.786 -0.031,-0.084 -0.123,-0.191 -0.194,-0.265 z m 22.146,0.165 c -0.846,0.356 -1.532,1.069 -2.234,1.639 -2.497,2.027 -4.287,4.478 -5.851,7.268 -0.243,0.435 -0.556,0.896 -0.84,1.373 1.245,-0.865 2.491,-1.732 3.599,-2.763 1.455,-1.353 2.543,-2.993 3.65,-4.628 C 57.4,32 58.03,31.042 58.459,30.022 Z M 41.814,28.256 c -0.057,0.123 -0.148,0.335 -0.171,0.473 -0.017,0.105 -0.025,0.205 -0.021,0.29 0.117,2.066 0.945,3.898 1.991,5.669 0.871,1.474 2.122,2.777 3.191,4.162 -0.199,-0.67 -0.444,-1.328 -0.662,-1.991 -0.636,-1.938 -1.219,-3.933 -2.122,-5.767 -0.276,-0.562 -0.621,-1.223 -1.056,-1.8 -0.326,-0.433 -0.697,-0.827 -1.15,-1.036 z m 27.72,-2.234 c -0.118,0.008 -0.28,0.024 -0.398,0.054 -0.176,0.045 -0.353,0.105 -0.523,0.171 -0.365,0.142 -0.692,0.312 -0.873,0.431 -2.52,1.657 -4.305,4.773 -5.954,7.223 -0.776,1.153 -1.472,2.393 -2.042,3.674 2,-1.706 4.014,-3.401 5.941,-5.19 1.677,-1.557 3.718,-3.924 3.849,-6.363 z M 43.99,15.329 c -0.037,1.034 0.082,2.106 0.324,3.104 0.719,2.959 2.809,5.458 4.628,7.839 -0.66,-3.013 -1.944,-5.714 -3.397,-8.424 -0.46,-0.859 -0.832,-1.843 -1.555,-2.519 z m 19.094,-0.143 c -1.137,0.443 -2.038,1.4 -2.864,2.269 -1.828,1.923 -3.611,3.984 -5.112,6.176 -0.258,0.376 -0.505,0.76 -0.749,1.147 2.598,-1.647 4.887,-3.501 6.864,-6.17 0.755,-1.02 1.432,-2.219 1.861,-3.422 z M 53.017,8.832 c -0.06,0.051 -0.143,0.123 -0.192,0.182 -0.091,0.107 -0.175,0.226 -0.252,0.346 -0.188,0.293 -0.337,0.598 -0.435,0.815 -1.113,2.465 -1.097,4.843 -0.944,7.509 0.096,1.667 0.375,3.309 0.686,4.946 0.475,-1.631 0.833,-3.306 1.129,-4.919 0.301,-1.642 0.668,-3.25 0.668,-4.929 0,-0.668 0.03,-1.5 -0.066,-2.297 -0.075,-0.623 -0.208,-1.232 -0.59,-1.649 z"
   id="path2" />

</g>

</svg>
